<svg xmlns="http://www.w3.org/2000/svg" viewBox="0 0 100 100" width="220" height="220" role="img" aria-label="Lion of Judah face">
  <g fill="none" stroke="#c79a4b" stroke-width="1.6" stroke-linecap="round" stroke-linejoin="round">
    <!-- mane (12-point star) -->
    <path d="M80 50 L69.3 55.2 L76 65 L64.1 64.1 L65 76 L55.2 69.3 L50 80 L44.8 69.3 L35 76 L35.9 64.1 L24 65 L30.7 55.2 L20 50 L30.7 44.8 L24 35 L35.9 35.9 L35 24 L44.8 30.7 L50 20 L55.2 30.7 L65 24 L64.1 35.9 L76 35 L69.3 44.8 Z"/>
    <!-- nose -->
    <path d="M50 56 L46 61 L54 61 Z" fill="#c79a4b" stroke="none"/>
    <!-- muzzle / mouth -->
    <path d="M50 61 C48 67 44 68 41 66"/>
    <path d="M50 61 C52 67 56 68 59 66"/>
  </g>
  <!-- eyes -->
  <circle cx="43" cy="47" r="2.6" fill="#c79a4b"/>
  <circle cx="57" cy="47" r="2.6" fill="#c79a4b"/>
</svg>
